<?xml version="1.0" encoding="UTF-8"?>
<svg xmlns="http://www.w3.org/2000/svg" viewBox="0 0 620 900" width="620" height="900" font-family="'微軟正黑體','Microsoft JhengHei','PingFang TC','Noto Sans TC',sans-serif" role="img" aria-label="上肢屈側經穴定位圖"><rect x="0" y="0" width="620" height="900" fill="#1d1730"></rect><path d="M 320 300 C 334 360 344 500 342 640 C 341 712 350 786 356 830 L 204 830 C 210 786 219 712 218 640 C 216 500 226 360 240 300 Z" fill="rgba(255,255,255,.04)" stroke="#5b5070" stroke-width="1.6" stroke-linejoin="round"></path><rect x="232" y="100" width="21" height="106" rx="10.5" fill="rgba(255,255,255,.04)" stroke="#5b5070" stroke-width="1.4"></rect><rect x="256" y="76" width="22" height="130" rx="11" fill="rgba(255,255,255,.04)" stroke="#5b5070" stroke-width="1.4"></rect><rect x="281" y="62" width="22" height="144" rx="11" fill="rgba(255,255,255,.04)" stroke="#5b5070" stroke-width="1.4"></rect><rect x="306" y="84" width="21" height="122" rx="10.5" fill="rgba(255,255,255,.04)" stroke="#5b5070" stroke-width="1.4"></rect><path d="M 316 298 C 336 288 354 268 366 244 C 374 228 386 232 380 248 C 370 274 350 294 330 306 Z" fill="rgba(255,255,255,.04)" stroke="#5b5070" stroke-width="1.5" stroke-linejoin="round"></path><path d="M 240 304 C 231 266 226 232 228 202 C 229 187 238 180 251 180 L 310 180 C 324 180 333 188 332 202 C 330 232 328 266 320 304 Z" fill="#242038" stroke="#5b5070" stroke-width="1.6" stroke-linejoin="round"></path><line x1="250" y1="296" x2="240" y2="205" stroke="#5b5070" stroke-width="1" stroke-opacity="0.75" stroke-dasharray="5 4"></line><line x1="262" y1="296" x2="264" y2="200" stroke="#5b5070" stroke-width="1" stroke-opacity="0.75" stroke-dasharray="5 4"></line><line x1="277" y1="296" x2="289" y2="198" stroke="#5b5070" stroke-width="1" stroke-opacity="0.75" stroke-dasharray="5 4"></line><line x1="292" y1="296" x2="313" y2="202" stroke="#5b5070" stroke-width="1" stroke-opacity="0.75" stroke-dasharray="5 4"></line><line x1="309" y1="291" x2="330" y2="262" stroke="#5b5070" stroke-width="1" stroke-opacity="0.75" stroke-dasharray="5 4"></line><path d="M 236 296 C 228 262 224 230 226 200" fill="none" stroke="#c9a227" stroke-opacity="0.55" stroke-width="1.2" stroke-dasharray="2 4"></path><path d="M 324 296 C 332 262 334 230 332 200" fill="none" stroke="#c9a227" stroke-opacity="0.55" stroke-width="1.2" stroke-dasharray="2 4"></path><path d="M 331 232 C 344 240 356 244 370 240" fill="none" stroke="#c9a227" stroke-opacity="0.55" stroke-width="1.2" stroke-dasharray="2 4"></path><line x1="476" y1="244" x2="492" y2="244" stroke="#c9a227" stroke-opacity="0.55" stroke-width="1.2" stroke-dasharray="2 4"></line><text fill="#c9a227" fill-opacity="0.85" font-size="11" x="498" y="248">赤白肉際</text><line x1="476" y1="268" x2="492" y2="268" stroke="#5b5070" stroke-opacity="0.75" stroke-width="1" stroke-dasharray="5 4"></line><text fill="#8d7f9e" font-size="11" x="498" y="272">掌骨 1–5</text><line x1="198" y1="194" x2="362" y2="194" stroke="#6d5f7e" stroke-width="1.2" stroke-dasharray="3 3"></line><text fill="#8d7f9e" font-size="11" x="198" y="186">掌指關節</text><g><text fill="#8d7f9e" font-size="11" text-anchor="end" x="46" y="288">寸</text><line x1="30" y1="300" x2="46" y2="300" stroke="#5b5070" stroke-width="1"></line><text fill="#8d7f9e" font-size="10" text-anchor="end" x="26" y="303.5">0</text><line x1="30" y1="356.6666666666667" x2="46" y2="356.6666666666667" stroke="#5b5070" stroke-width="1"></line><text fill="#8d7f9e" font-size="10" text-anchor="end" x="26" y="360.1666666666667">2</text><line x1="30" y1="413.3333333333333" x2="46" y2="413.3333333333333" stroke="#5b5070" stroke-width="1"></line><text fill="#8d7f9e" font-size="10" text-anchor="end" x="26" y="416.8333333333333">4</text><line x1="30" y1="470" x2="46" y2="470" stroke="#5b5070" stroke-width="1"></line><text fill="#8d7f9e" font-size="10" text-anchor="end" x="26" y="473.5">6</text><line x1="30" y1="526.6666666666666" x2="46" y2="526.6666666666666" stroke="#5b5070" stroke-width="1"></line><text fill="#8d7f9e" font-size="10" text-anchor="end" x="26" y="530.1666666666666">8</text><line x1="30" y1="583.3333333333334" x2="46" y2="583.3333333333334" stroke="#5b5070" stroke-width="1"></line><text fill="#8d7f9e" font-size="10" text-anchor="end" x="26" y="586.8333333333334">10</text><line x1="30" y1="640" x2="46" y2="640" stroke="#5b5070" stroke-width="1"></line><text fill="#8d7f9e" font-size="10" text-anchor="end" x="26" y="643.5">12</text><line x1="30" y1="682.2222222222222" x2="46" y2="682.2222222222222" stroke="#5b5070" stroke-width="1"></line><text fill="#8d7f9e" font-size="10" text-anchor="end" x="26" y="685.7222222222222">14</text><line x1="30" y1="724.4444444444445" x2="46" y2="724.4444444444445" stroke="#5b5070" stroke-width="1"></line><text fill="#8d7f9e" font-size="10" text-anchor="end" x="26" y="727.9444444444445">16</text><line x1="30" y1="766.6666666666666" x2="46" y2="766.6666666666666" stroke="#5b5070" stroke-width="1"></line><text fill="#8d7f9e" font-size="10" text-anchor="end" x="26" y="770.1666666666666">18</text><line x1="30" y1="808.8888888888889" x2="46" y2="808.8888888888889" stroke="#5b5070" stroke-width="1"></line><text fill="#8d7f9e" font-size="10" text-anchor="end" x="26" y="812.3888888888889">20</text><line x1="30" y1="830" x2="46" y2="830" stroke="#5b5070" stroke-width="1"></line><text fill="#8d7f9e" font-size="10" text-anchor="end" x="26" y="833.5">21</text><line x1="38" y1="300" x2="38" y2="830" stroke="#5b5070" stroke-width="1"></line></g><line x1="200" y1="300" x2="360" y2="300" stroke="#6d5f7e" stroke-width="1.2" stroke-dasharray="3 3"></line><text fill="#8d7f9e" font-size="11" x="200" y="292">腕橫紋</text><line x1="178" y1="640" x2="382" y2="640" stroke="#6d5f7e" stroke-width="1.2" stroke-dasharray="3 3"></line><text fill="#8d7f9e" font-size="11" x="178" y="632">肘橫紋</text><line x1="164" y1="830" x2="396" y2="830" stroke="#6d5f7e" stroke-width="1.2" stroke-dasharray="3 3"></line><text fill="#8d7f9e" font-size="11" x="176" y="822">腋前紋頭</text><path d="M 319.9 766.7 L 319.1 745.6 L 314.7 640.0 L 309.6 498.3 L 303.9 342.5 L 303.4 328.3 L 302.4 300.0 L 332.0 272.0 L 377.0 240.0" fill="none" stroke="#7fd4c1" stroke-width="1.6" stroke-opacity="0.55"></path><path d="M 280.0 787.8 L 270.0 640.0 L 280.0 441.7 L 280.0 385.0 L 280.0 356.7 L 280.0 300.0 L 300.0 250.0 L 290.0 62.0" fill="none" stroke="#c98adf" stroke-width="1.6" stroke-opacity="0.55"></path><path d="M 224.0 838.0 L 242.7 703.3 L 245.3 640.0 L 256.1 342.5 L 256.6 328.3 L 257.1 314.2 L 257.6 300.0 L 252.0 248.0 L 251.0 104.0" fill="none" stroke="#e3695f" stroke-width="1.6" stroke-opacity="0.55"></path><g class="acu-pt" data-code="LU11" tabindex="0" role="button" aria-label="少商 LU11" opacity="1" style="cursor:pointer"><path d="M 377.0 240.0 L 384 240.0" stroke="#7fd4c1" stroke-width="0.9" stroke-opacity="0.45" fill="none"></path><text fill="#e6ddc8" font-size="13" text-anchor="start" x="390" y="244">少商</text><text fill="#a396b5" font-size="10" text-anchor="start" x="422" y="244">LU11</text><circle cx="377" cy="240" r="4.6" fill="#7fd4c1" stroke="#140f1e" stroke-width="1.4"></circle><circle cx="377" cy="240" r="22" fill="transparent"></circle></g><g class="acu-pt" data-code="LU10" tabindex="0" role="button" aria-label="魚際 LU10" opacity="1" style="cursor:pointer"><path d="M 332.0 272.0 L 384 272.0" stroke="#7fd4c1" stroke-width="0.9" stroke-opacity="0.45" fill="none"></path><text fill="#e6ddc8" font-size="13" text-anchor="start" x="390" y="276">魚際</text><text fill="#a396b5" font-size="10" text-anchor="start" x="422" y="276">LU10</text><circle cx="332" cy="272" r="4.6" fill="#7fd4c1" stroke="#140f1e" stroke-width="1.4"></circle><circle cx="332" cy="272" r="22" fill="transparent"></circle></g><g class="acu-pt" data-code="LU9" tabindex="0" role="button" aria-label="太淵 LU9" opacity="1" style="cursor:pointer"><path d="M 302.4 300.0 L 384 300.0" stroke="#7fd4c1" stroke-width="0.9" stroke-opacity="0.45" fill="none"></path><text fill="#e6ddc8" font-size="13" text-anchor="start" x="390" y="304">太淵</text><text fill="#a396b5" font-size="10" text-anchor="start" x="422" y="304">LU9</text><circle cx="302.4" cy="300" r="4.6" fill="#7fd4c1" stroke="#140f1e" stroke-width="1.4"></circle><circle cx="302.4" cy="300" r="22" fill="transparent"></circle></g><g class="acu-pt" data-code="LU8" tabindex="0" role="button" aria-label="經渠 LU8" opacity="1" style="cursor:pointer"><path d="M 303.4 328.3 L 384 328.3" stroke="#7fd4c1" stroke-width="0.9" stroke-opacity="0.45" fill="none"></path><text fill="#e6ddc8" font-size="13" text-anchor="start" x="390" y="332.3333333333333">經渠</text><text fill="#a396b5" font-size="10" text-anchor="start" x="422" y="332.3333333333333">LU8</text><circle cx="303.4266666666666" cy="328.3333333333333" r="4.6" fill="#7fd4c1" stroke="#140f1e" stroke-width="1.4"></circle><circle cx="303.4266666666666" cy="328.3333333333333" r="22" fill="transparent"></circle></g><g class="acu-pt" data-code="LU7" tabindex="0" role="button" aria-label="列缺 LU7" opacity="1" style="cursor:pointer"><path d="M 303.9 342.5 L 384 347.3" stroke="#7fd4c1" stroke-width="0.9" stroke-opacity="0.45" fill="none"></path><text fill="#e6ddc8" font-size="13" text-anchor="start" x="390" y="351.3333333333333">列缺</text><text fill="#a396b5" font-size="10" text-anchor="start" x="422" y="351.3333333333333">LU7</text><circle cx="303.94" cy="342.5" r="4.6" fill="#7fd4c1" stroke="#140f1e" stroke-width="1.4"></circle><circle cx="303.94" cy="342.5" r="22" fill="transparent"></circle></g><g class="acu-pt" data-code="LU6" tabindex="0" role="button" aria-label="孔最 LU6" opacity="1" style="cursor:pointer"><path d="M 309.6 498.3 L 384 498.3" stroke="#7fd4c1" stroke-width="0.9" stroke-opacity="0.45" fill="none"></path><text fill="#e6ddc8" font-size="13" text-anchor="start" x="390" y="502.33333333333337">孔最</text><text fill="#a396b5" font-size="10" text-anchor="start" x="422" y="502.33333333333337">LU6</text><circle cx="309.58666666666664" cy="498.33333333333337" r="4.6" fill="#7fd4c1" stroke="#140f1e" stroke-width="1.4"></circle><circle cx="309.58666666666664" cy="498.33333333333337" r="22" fill="transparent"></circle></g><g class="acu-pt" data-code="LU5" tabindex="0" role="button" aria-label="尺澤 LU5" opacity="1" style="cursor:pointer"><path d="M 314.7 640.0 L 384 640.0" stroke="#7fd4c1" stroke-width="0.9" stroke-opacity="0.45" fill="none"></path><text fill="#e6ddc8" font-size="13" text-anchor="start" x="390" y="644">尺澤</text><text fill="#a396b5" font-size="10" text-anchor="start" x="422" y="644">LU5</text><circle cx="314.72" cy="640" r="4.6" fill="#7fd4c1" stroke="#140f1e" stroke-width="1.4"></circle><circle cx="314.72" cy="640" r="22" fill="transparent"></circle></g><g class="acu-pt" data-code="LU4" tabindex="0" role="button" aria-label="俠白 LU4" opacity="1" style="cursor:pointer"><path d="M 319.1 745.6 L 384 745.6" stroke="#7fd4c1" stroke-width="0.9" stroke-opacity="0.45" fill="none"></path><text fill="#e6ddc8" font-size="13" text-anchor="start" x="390" y="749.5555555555555">俠白</text><text fill="#a396b5" font-size="10" text-anchor="start" x="422" y="749.5555555555555">LU4</text><circle cx="319.0755555555555" cy="745.5555555555555" r="4.6" fill="#7fd4c1" stroke="#140f1e" stroke-width="1.4"></circle><circle cx="319.0755555555555" cy="745.5555555555555" r="22" fill="transparent"></circle></g><g class="acu-pt" data-code="LU3" tabindex="0" role="button" aria-label="天府 LU3" opacity="1" style="cursor:pointer"><path d="M 319.9 766.7 L 384 766.7" stroke="#7fd4c1" stroke-width="0.9" stroke-opacity="0.45" fill="none"></path><text fill="#e6ddc8" font-size="13" text-anchor="start" x="390" y="770.6666666666666">天府</text><text fill="#a396b5" font-size="10" text-anchor="start" x="422" y="770.6666666666666">LU3</text><circle cx="319.94666666666666" cy="766.6666666666666" r="4.6" fill="#7fd4c1" stroke="#140f1e" stroke-width="1.4"></circle><circle cx="319.94666666666666" cy="766.6666666666666" r="22" fill="transparent"></circle></g><g class="acu-pt" data-code="PC9" tabindex="0" role="button" aria-label="中衝 PC9" opacity="1" style="cursor:pointer"><path d="M 290.0 62.0 L 176 62.0" stroke="#c98adf" stroke-width="0.9" stroke-opacity="0.45" fill="none"></path><text fill="#e6ddc8" font-size="13" text-anchor="end" x="170" y="66">中衝</text><text fill="#a396b5" font-size="10" text-anchor="end" x="138" y="66">PC9</text><circle cx="290" cy="62" r="4.6" fill="#c98adf" stroke="#140f1e" stroke-width="1.4"></circle><circle cx="290" cy="62" r="22" fill="transparent"></circle></g><g class="acu-pt" data-code="HT9" tabindex="0" role="button" aria-label="少衝 HT9" opacity="1" style="cursor:pointer"><path d="M 251.0 104.0 L 176 104.0" stroke="#e3695f" stroke-width="0.9" stroke-opacity="0.45" fill="none"></path><text fill="#e6ddc8" font-size="13" text-anchor="end" x="170" y="108">少衝</text><text fill="#a396b5" font-size="10" text-anchor="end" x="138" y="108">HT9</text><circle cx="251" cy="104" r="4.6" fill="#e3695f" stroke="#140f1e" stroke-width="1.4"></circle><circle cx="251" cy="104" r="22" fill="transparent"></circle></g><g class="acu-pt" data-code="HT8" tabindex="0" role="button" aria-label="少府 HT8" opacity="1" style="cursor:pointer"><path d="M 252.0 248.0 L 176 248.0" stroke="#e3695f" stroke-width="0.9" stroke-opacity="0.45" fill="none"></path><text fill="#e6ddc8" font-size="13" text-anchor="end" x="170" y="252">少府</text><text fill="#a396b5" font-size="10" text-anchor="end" x="138" y="252">HT8</text><circle cx="252" cy="248" r="4.6" fill="#e3695f" stroke="#140f1e" stroke-width="1.4"></circle><circle cx="252" cy="248" r="22" fill="transparent"></circle></g><g class="acu-pt" data-code="PC8" tabindex="0" role="button" aria-label="勞宮 PC8" opacity="1" style="cursor:pointer"><path d="M 300.0 250.0 L 176 267.0" stroke="#c98adf" stroke-width="0.9" stroke-opacity="0.45" fill="none"></path><text fill="#e6ddc8" font-size="13" text-anchor="end" x="170" y="271">勞宮</text><text fill="#a396b5" font-size="10" text-anchor="end" x="138" y="271">PC8</text><circle cx="300" cy="250" r="4.6" fill="#c98adf" stroke="#140f1e" stroke-width="1.4"></circle><circle cx="300" cy="250" r="22" fill="transparent"></circle></g><g class="acu-pt" data-code="PC7" tabindex="0" role="button" aria-label="大陵 PC7" opacity="1" style="cursor:pointer"><path d="M 280.0 300.0 L 176 300.0" stroke="#c98adf" stroke-width="0.9" stroke-opacity="0.45" fill="none"></path><text fill="#e6ddc8" font-size="13" text-anchor="end" x="170" y="304">大陵</text><text fill="#a396b5" font-size="10" text-anchor="end" x="138" y="304">PC7</text><circle cx="280" cy="300" r="4.6" fill="#c98adf" stroke="#140f1e" stroke-width="1.4"></circle><circle cx="280" cy="300" r="22" fill="transparent"></circle></g><g class="acu-pt" data-code="HT7" tabindex="0" role="button" aria-label="神門 HT7" opacity="1" style="cursor:pointer"><path d="M 257.6 300.0 L 176 319.0" stroke="#e3695f" stroke-width="0.9" stroke-opacity="0.45" fill="none"></path><text fill="#e6ddc8" font-size="13" text-anchor="end" x="170" y="323">神門</text><text fill="#a396b5" font-size="10" text-anchor="end" x="138" y="323">HT7</text><circle cx="257.6" cy="300" r="4.6" fill="#e3695f" stroke="#140f1e" stroke-width="1.4"></circle><circle cx="257.6" cy="300" r="22" fill="transparent"></circle></g><g class="acu-pt" data-code="HT6" tabindex="0" role="button" aria-label="陰郄 HT6" opacity="1" style="cursor:pointer"><path d="M 257.1 314.2 L 176 338.0" stroke="#e3695f" stroke-width="0.9" stroke-opacity="0.45" fill="none"></path><text fill="#e6ddc8" font-size="13" text-anchor="end" x="170" y="342">陰郄</text><text fill="#a396b5" font-size="10" text-anchor="end" x="138" y="342">HT6</text><circle cx="257.0866666666667" cy="314.1666666666667" r="4.6" fill="#e3695f" stroke="#140f1e" stroke-width="1.4"></circle><circle cx="257.0866666666667" cy="314.1666666666667" r="22" fill="transparent"></circle></g><g class="acu-pt" data-code="HT5" tabindex="0" role="button" aria-label="通里 HT5" opacity="1" style="cursor:pointer"><path d="M 256.6 328.3 L 176 357.0" stroke="#e3695f" stroke-width="0.9" stroke-opacity="0.45" fill="none"></path><text fill="#e6ddc8" font-size="13" text-anchor="end" x="170" y="361">通里</text><text fill="#a396b5" font-size="10" text-anchor="end" x="138" y="361">HT5</text><circle cx="256.5733333333333" cy="328.3333333333333" r="4.6" fill="#e3695f" stroke="#140f1e" stroke-width="1.4"></circle><circle cx="256.5733333333333" cy="328.3333333333333" r="22" fill="transparent"></circle></g><g class="acu-pt" data-code="HT4" tabindex="0" role="button" aria-label="靈道 HT4" opacity="1" style="cursor:pointer"><path d="M 256.1 342.5 L 176 376.0" stroke="#e3695f" stroke-width="0.9" stroke-opacity="0.45" fill="none"></path><text fill="#e6ddc8" font-size="13" text-anchor="end" x="170" y="380">靈道</text><text fill="#a396b5" font-size="10" text-anchor="end" x="138" y="380">HT4</text><circle cx="256.06" cy="342.5" r="4.6" fill="#e3695f" stroke="#140f1e" stroke-width="1.4"></circle><circle cx="256.06" cy="342.5" r="22" fill="transparent"></circle></g><g class="acu-pt" data-code="PC6" tabindex="0" role="button" aria-label="內關 PC6" opacity="1" style="cursor:pointer"><path d="M 280.0 356.7 L 176 395.0" stroke="#c98adf" stroke-width="0.9" stroke-opacity="0.45" fill="none"></path><text fill="#e6ddc8" font-size="13" text-anchor="end" x="170" y="399">內關</text><text fill="#a396b5" font-size="10" text-anchor="end" x="138" y="399">PC6</text><circle cx="280" cy="356.6666666666667" r="4.6" fill="#c98adf" stroke="#140f1e" stroke-width="1.4"></circle><circle cx="280" cy="356.6666666666667" r="22" fill="transparent"></circle></g><g class="acu-pt" data-code="PC5" tabindex="0" role="button" aria-label="間使 PC5" opacity="1" style="cursor:pointer"><path d="M 280.0 385.0 L 176 414.0" stroke="#c98adf" stroke-width="0.9" stroke-opacity="0.45" fill="none"></path><text fill="#e6ddc8" font-size="13" text-anchor="end" x="170" y="418">間使</text><text fill="#a396b5" font-size="10" text-anchor="end" x="138" y="418">PC5</text><circle cx="280" cy="385" r="4.6" fill="#c98adf" stroke="#140f1e" stroke-width="1.4"></circle><circle cx="280" cy="385" r="22" fill="transparent"></circle></g><g class="acu-pt" data-code="PC4" tabindex="0" role="button" aria-label="郄門 PC4" opacity="1" style="cursor:pointer"><path d="M 280.0 441.7 L 176 441.7" stroke="#c98adf" stroke-width="0.9" stroke-opacity="0.45" fill="none"></path><text fill="#e6ddc8" font-size="13" text-anchor="end" x="170" y="445.6666666666667">郄門</text><text fill="#a396b5" font-size="10" text-anchor="end" x="138" y="445.6666666666667">PC4</text><circle cx="280" cy="441.6666666666667" r="4.6" fill="#c98adf" stroke="#140f1e" stroke-width="1.4"></circle><circle cx="280" cy="441.6666666666667" r="22" fill="transparent"></circle></g><g class="acu-pt" data-code="PC3" tabindex="0" role="button" aria-label="曲澤 PC3" opacity="1" style="cursor:pointer"><path d="M 270.0 640.0 L 176 640.0" stroke="#c98adf" stroke-width="0.9" stroke-opacity="0.45" fill="none"></path><text fill="#e6ddc8" font-size="13" text-anchor="end" x="170" y="644">曲澤</text><text fill="#a396b5" font-size="10" text-anchor="end" x="138" y="644">PC3</text><circle cx="270" cy="640" r="4.6" fill="#c98adf" stroke="#140f1e" stroke-width="1.4"></circle><circle cx="270" cy="640" r="22" fill="transparent"></circle></g><g class="acu-pt" data-code="HT3" tabindex="0" role="button" aria-label="少海 HT3" opacity="1" style="cursor:pointer"><path d="M 245.3 640.0 L 176 659.0" stroke="#e3695f" stroke-width="0.9" stroke-opacity="0.45" fill="none"></path><text fill="#e6ddc8" font-size="13" text-anchor="end" x="170" y="663">少海</text><text fill="#a396b5" font-size="10" text-anchor="end" x="138" y="663">HT3</text><circle cx="245.28" cy="640" r="4.6" fill="#e3695f" stroke="#140f1e" stroke-width="1.4"></circle><circle cx="245.28" cy="640" r="22" fill="transparent"></circle></g><g class="acu-pt" data-code="HT2" tabindex="0" role="button" aria-label="青靈 HT2" opacity="1" style="cursor:pointer"><path d="M 242.7 703.3 L 176 703.3" stroke="#e3695f" stroke-width="0.9" stroke-opacity="0.45" fill="none"></path><text fill="#e6ddc8" font-size="13" text-anchor="end" x="170" y="707.3333333333334">青靈</text><text fill="#a396b5" font-size="10" text-anchor="end" x="138" y="707.3333333333334">HT2</text><circle cx="242.66666666666669" cy="703.3333333333334" r="4.6" fill="#e3695f" stroke="#140f1e" stroke-width="1.4"></circle><circle cx="242.66666666666669" cy="703.3333333333334" r="22" fill="transparent"></circle></g><g class="acu-pt" data-code="PC2" tabindex="0" role="button" aria-label="天泉 PC2" opacity="1" style="cursor:pointer"><path d="M 280.0 787.8 L 176 787.8" stroke="#c98adf" stroke-width="0.9" stroke-opacity="0.45" fill="none"></path><text fill="#e6ddc8" font-size="13" text-anchor="end" x="170" y="791.7777777777778">天泉</text><text fill="#a396b5" font-size="10" text-anchor="end" x="138" y="791.7777777777778">PC2</text><circle cx="280" cy="787.7777777777778" r="4.6" fill="#c98adf" stroke="#140f1e" stroke-width="1.4"></circle><circle cx="280" cy="787.7777777777778" r="22" fill="transparent"></circle></g><g class="acu-pt" data-code="HT1" tabindex="0" role="button" aria-label="極泉 HT1" opacity="1" style="cursor:pointer"><path d="M 224.0 838.0 L 176 838.0" stroke="#e3695f" stroke-width="0.9" stroke-opacity="0.45" fill="none"></path><text fill="#e6ddc8" font-size="13" text-anchor="end" x="170" y="842">極泉</text><text fill="#a396b5" font-size="10" text-anchor="end" x="138" y="842">HT1</text><circle cx="224" cy="838" r="4.6" fill="#e3695f" stroke="#140f1e" stroke-width="1.4"></circle><circle cx="224" cy="838" r="22" fill="transparent"></circle></g><text fill="#8d7f9e" font-size="11" x="30" y="872">右上肢．自身視角（掌心朝自己、手指朝上）　│　左右對稱，圖示單側</text></svg>